<svg width="120" height="21" viewBox="0 0 120 21" fill="none" xmlns="http://www.w3.org/2000/svg">
<path d="M21.9727 7.98278C21.9388 7.87551 21.8738 7.78073 21.786 7.71048C21.6982 7.64022 21.5915 7.59765 21.4795 7.58816L14.2486 7.01101L11.5258 0.351162C11.4828 0.246959 11.4098 0.157921 11.3161 0.0953852C11.2224 0.0328494 11.1122 -0.000354112 10.9996 2.84819e-06C10.7704 2.84819e-06 10.5637 0.137337 10.4752 0.351162L7.75232 7.01101L0.519711 7.58816C0.407573 7.59786 0.300791 7.64048 0.21275 7.71068C0.124709 7.78088 0.0593272 7.87554 0.0248022 7.98278C-0.0411856 8.20356 0.0265387 8.44346 0.203664 8.59123L5.74317 13.1963L4.00144 20.2977C3.94587 20.5219 4.03269 20.7584 4.22024 20.8922C4.31922 20.9652 4.43383 21 4.55018 21C4.6561 21 4.76203 20.9704 4.85407 20.9131L10.9996 17.019L17.1452 20.9113C17.3414 21.0365 17.5914 21.0278 17.779 20.8922C17.8707 20.8264 17.9406 20.7346 17.9797 20.6286C18.0187 20.5226 18.025 20.4073 17.9978 20.2977L16.2561 13.1963L21.7956 8.58949C21.8825 8.51783 21.9459 8.42165 21.9775 8.31345C22.0091 8.20524 22.0074 8.09003 21.9727 7.98278ZM14.0368 12.4644L15.2385 17.358L10.9996 14.6722L6.7625 17.3563L7.96418 12.4627L4.14383 9.28833L9.12244 8.89023L10.9996 4.30431L12.8768 8.89023L17.8537 9.28833L14.0368 12.4644Z" fill="url(#paint0_linear_1_610)" fill-opacity="0.8" style="mix-blend-mode:multiply"/>
<path d="M46.9715 7.98278C46.936 7.87551 46.868 7.78073 46.7763 7.71048C46.6845 7.64022 46.573 7.59765 46.4559 7.58816L38.8963 7.01101L36.0497 0.351162C36.0047 0.246959 35.9284 0.157921 35.8305 0.0953852C35.7325 0.0328494 35.6173 -0.000354112 35.4996 2.84819e-06C35.26 2.84819e-06 35.0439 0.137337 34.9513 0.351162L32.1047 7.01101L24.5433 7.58816C24.4261 7.59786 24.3145 7.64048 24.2224 7.71068C24.1304 7.78088 24.062 7.87554 24.0259 7.98278C23.9569 8.20356 24.0277 8.44346 24.2129 8.59123L30.0042 13.1963L28.1833 20.2977C28.1252 20.5219 28.216 20.7584 28.4121 20.8922C28.5155 20.9652 28.6354 21 28.757 21C28.8677 21 28.9785 20.9704 29.0747 20.9131L35.4996 17.019L41.9245 20.9113C42.1296 21.0365 42.3911 21.0278 42.5871 20.8922C42.683 20.8264 42.7561 20.7346 42.7969 20.6286C42.8377 20.5226 42.8443 20.4073 42.8159 20.2977L40.995 13.1963L46.7863 8.58949C46.8772 8.51783 46.9434 8.42165 46.9764 8.31345C47.0095 8.20524 47.0077 8.09003 46.9715 7.98278ZM38.6748 12.4644L39.9311 17.358L35.4996 14.6722L31.0699 17.3563L32.3262 12.4627L28.3322 9.28833L33.5371 8.89023L35.4996 4.30431L37.4621 8.89023L42.6652 9.28833L38.6748 12.4644Z" fill="url(#paint1_linear_1_610)" fill-opacity="0.8" style="mix-blend-mode:multiply"/>
<path d="M69.9727 7.98278C69.9388 7.87551 69.8738 7.78073 69.786 7.71048C69.6982 7.64022 69.5915 7.59765 69.4795 7.58816L62.2486 7.01101L59.5258 0.351162C59.4828 0.246959 59.4098 0.157921 59.3161 0.0953852C59.2224 0.0328494 59.1122 -0.000354112 58.9996 2.84819e-06C58.7704 2.84819e-06 58.5637 0.137337 58.4752 0.351162L55.7523 7.01101L48.5197 7.58816C48.4076 7.59786 48.3008 7.64048 48.2127 7.71068C48.1247 7.78088 48.0593 7.87554 48.0248 7.98278C47.9588 8.20356 48.0265 8.44346 48.2037 8.59123L53.7432 13.1963L52.0014 20.2977C51.9459 20.5219 52.0327 20.7584 52.2202 20.8922C52.3192 20.9652 52.4338 21 52.5502 21C52.6561 21 52.762 20.9704 52.8541 20.9131L58.9996 17.019L65.1452 20.9113C65.3414 21.0365 65.5914 21.0278 65.779 20.8922C65.8707 20.8264 65.9406 20.7346 65.9797 20.6286C66.0187 20.5226 66.025 20.4073 65.9978 20.2977L64.2561 13.1963L69.7956 8.58949C69.8825 8.51783 69.9459 8.42165 69.9775 8.31345C70.0091 8.20524 70.0074 8.09003 69.9727 7.98278ZM62.0368 12.4644L63.2385 17.358L58.9996 14.6722L54.7625 17.3563L55.9642 12.4627L52.1438 9.28833L57.1224 8.89023L58.9996 4.30431L60.8768 8.89023L65.8537 9.28833L62.0368 12.4644Z" fill="url(#paint2_linear_1_610)" fill-opacity="0.8" style="mix-blend-mode:multiply"/>
<path d="M95.9715 7.98278C95.936 7.87551 95.868 7.78073 95.7763 7.71048C95.6845 7.64022 95.573 7.59765 95.4559 7.58816L87.8963 7.01101L85.0497 0.351162C85.0047 0.246959 84.9284 0.157921 84.8305 0.0953852C84.7325 0.0328494 84.6173 -0.000354112 84.4996 2.84819e-06C84.26 2.84819e-06 84.0439 0.137337 83.9513 0.351162L81.1047 7.01101L73.5433 7.58816C73.4261 7.59786 73.3145 7.64048 73.2224 7.71068C73.1304 7.78088 73.062 7.87554 73.0259 7.98278C72.9569 8.20356 73.0277 8.44346 73.2129 8.59123L79.0042 13.1963L77.1833 20.2977C77.1252 20.5219 77.216 20.7584 77.4121 20.8922C77.5155 20.9652 77.6354 21 77.757 21C77.8677 21 77.9785 20.9704 78.0747 20.9131L84.4996 17.019L90.9245 20.9113C91.1296 21.0365 91.3911 21.0278 91.5871 20.8922C91.683 20.8264 91.7561 20.7346 91.7969 20.6286C91.8377 20.5226 91.8443 20.4073 91.8159 20.2977L89.995 13.1963L95.7863 8.58949C95.8772 8.51783 95.9434 8.42165 95.9764 8.31345C96.0095 8.20524 96.0077 8.09003 95.9715 7.98278ZM87.6748 12.4644L88.9311 17.358L84.4996 14.6722L80.0699 17.3563L81.3262 12.4627L77.3322 9.28833L82.5371 8.89023L84.4996 4.30431L86.4621 8.89023L91.6652 9.28833L87.6748 12.4644Z" fill="url(#paint3_linear_1_610)" fill-opacity="0.8" style="mix-blend-mode:multiply"/>
<path d="M119.973 7.98278C119.939 7.87551 119.874 7.78073 119.786 7.71048C119.698 7.64022 119.592 7.59765 119.48 7.58816L112.249 7.01101L109.526 0.351162C109.483 0.246959 109.41 0.157921 109.316 0.0953852C109.222 0.0328494 109.112 -0.000354112 109 2.84819e-06C108.77 2.84819e-06 108.564 0.137337 108.475 0.351162L105.752 7.01101L98.5197 7.58816C98.4076 7.59786 98.3008 7.64048 98.2127 7.71068C98.1247 7.78088 98.0593 7.87554 98.0248 7.98278C97.9588 8.20356 98.0265 8.44346 98.2037 8.59123L103.743 13.1963L102.001 20.2977C101.946 20.5219 102.033 20.7584 102.22 20.8922C102.319 20.9652 102.434 21 102.55 21C102.656 21 102.762 20.9704 102.854 20.9131L109 17.019L115.145 20.9113C115.341 21.0365 115.591 21.0278 115.779 20.8922C115.871 20.8264 115.941 20.7346 115.98 20.6286C116.019 20.5226 116.025 20.4073 115.998 20.2977L114.256 13.1963L119.796 8.58949C119.882 8.51783 119.946 8.42165 119.977 8.31345C120.009 8.20524 120.007 8.09003 119.973 7.98278ZM112.037 12.4644L113.238 17.358L109 14.6722L104.763 17.3563L105.964 12.4627L102.144 9.28833L107.122 8.89023L109 4.30431L110.877 8.89023L115.854 9.28833L112.037 12.4644Z" fill="url(#paint4_linear_1_610)" fill-opacity="0.8" style="mix-blend-mode:multiply"/>
<path d="M21.9727 7.98278C21.9388 7.87551 21.8738 7.78073 21.786 7.71048C21.6982 7.64022 21.5915 7.59765 21.4795 7.58816L14.2486 7.01101L11.5258 0.351162C11.4828 0.246959 11.4098 0.157921 11.3161 0.0953852C11.2224 0.0328494 11.1122 -0.000354112 10.9996 2.84819e-06C10.7704 2.84819e-06 10.5637 0.137337 10.4752 0.351162L7.75232 7.01101L0.519711 7.58816C0.407573 7.59786 0.300791 7.64048 0.21275 7.71068C0.124709 7.78088 0.0593272 7.87554 0.0248022 7.98278C-0.0411856 8.20356 0.0265387 8.44346 0.203664 8.59123L5.74317 13.1963L4.00144 20.2977C3.94587 20.5219 4.03269 20.7584 4.22024 20.8922C4.31922 20.9652 4.43383 21 4.55018 21C4.6561 21 4.76203 20.9704 4.85407 20.9131L10.9996 17.019L17.1452 20.9113C17.3414 21.0365 17.5914 21.0278 17.779 20.8922C17.8707 20.8264 17.9406 20.7346 17.9797 20.6286C18.0187 20.5226 18.025 20.4073 17.9978 20.2977L16.2561 13.1963L21.7956 8.58949C21.8825 8.51783 21.9459 8.42165 21.9775 8.31345C22.0091 8.20524 22.0074 8.09003 21.9727 7.98278ZM14.0368 12.4644L15.2385 17.358L10.9996 14.6722L6.7625 17.3563L7.96418 12.4627L4.14383 9.28833L9.12244 8.89023L10.9996 4.30431L12.8768 8.89023L17.8537 9.28833L14.0368 12.4644Z" fill="url(#paint5_linear_1_610)" fill-opacity="0.8" style="mix-blend-mode:multiply"/>
<path d="M46.9715 7.98278C46.936 7.87551 46.868 7.78073 46.7763 7.71048C46.6845 7.64022 46.573 7.59765 46.4559 7.58816L38.8963 7.01101L36.0497 0.351162C36.0047 0.246959 35.9284 0.157921 35.8305 0.0953852C35.7325 0.0328494 35.6173 -0.000354112 35.4996 2.84819e-06C35.26 2.84819e-06 35.0439 0.137337 34.9513 0.351162L32.1047 7.01101L24.5433 7.58816C24.4261 7.59786 24.3145 7.64048 24.2224 7.71068C24.1304 7.78088 24.062 7.87554 24.0259 7.98278C23.9569 8.20356 24.0277 8.44346 24.2129 8.59123L30.0042 13.1963L28.1833 20.2977C28.1252 20.5219 28.216 20.7584 28.4121 20.8922C28.5155 20.9652 28.6354 21 28.757 21C28.8677 21 28.9785 20.9704 29.0747 20.9131L35.4996 17.019L41.9245 20.9113C42.1296 21.0365 42.3911 21.0278 42.5871 20.8922C42.683 20.8264 42.7561 20.7346 42.7969 20.6286C42.8377 20.5226 42.8443 20.4073 42.8159 20.2977L40.995 13.1963L46.7863 8.58949C46.8772 8.51783 46.9434 8.42165 46.9764 8.31345C47.0095 8.20524 47.0077 8.09003 46.9715 7.98278ZM38.6748 12.4644L39.9311 17.358L35.4996 14.6722L31.0699 17.3563L32.3262 12.4627L28.3322 9.28833L33.5371 8.89023L35.4996 4.30431L37.4621 8.89023L42.6652 9.28833L38.6748 12.4644Z" fill="url(#paint6_linear_1_610)" fill-opacity="0.8" style="mix-blend-mode:multiply"/>
<path d="M69.9727 7.98278C69.9388 7.87551 69.8738 7.78073 69.786 7.71048C69.6982 7.64022 69.5915 7.59765 69.4795 7.58816L62.2486 7.01101L59.5258 0.351162C59.4828 0.246959 59.4098 0.157921 59.3161 0.0953852C59.2224 0.0328494 59.1122 -0.000354112 58.9996 2.84819e-06C58.7704 2.84819e-06 58.5637 0.137337 58.4752 0.351162L55.7523 7.01101L48.5197 7.58816C48.4076 7.59786 48.3008 7.64048 48.2127 7.71068C48.1247 7.78088 48.0593 7.87554 48.0248 7.98278C47.9588 8.20356 48.0265 8.44346 48.2037 8.59123L53.7432 13.1963L52.0014 20.2977C51.9459 20.5219 52.0327 20.7584 52.2202 20.8922C52.3192 20.9652 52.4338 21 52.5502 21C52.6561 21 52.762 20.9704 52.8541 20.9131L58.9996 17.019L65.1452 20.9113C65.3414 21.0365 65.5914 21.0278 65.779 20.8922C65.8707 20.8264 65.9406 20.7346 65.9797 20.6286C66.0187 20.5226 66.025 20.4073 65.9978 20.2977L64.2561 13.1963L69.7956 8.58949C69.8825 8.51783 69.9459 8.42165 69.9775 8.31345C70.0091 8.20524 70.0074 8.09003 69.9727 7.98278ZM62.0368 12.4644L63.2385 17.358L58.9996 14.6722L54.7625 17.3563L55.9642 12.4627L52.1438 9.28833L57.1224 8.89023L58.9996 4.30431L60.8768 8.89023L65.8537 9.28833L62.0368 12.4644Z" fill="url(#paint7_linear_1_610)" fill-opacity="0.8" style="mix-blend-mode:multiply"/>
<path d="M95.9715 7.98278C95.936 7.87551 95.868 7.78073 95.7763 7.71048C95.6845 7.64022 95.573 7.59765 95.4559 7.58816L87.8963 7.01101L85.0497 0.351162C85.0047 0.246959 84.9284 0.157921 84.8305 0.0953852C84.7325 0.0328494 84.6173 -0.000354112 84.4996 2.84819e-06C84.26 2.84819e-06 84.0439 0.137337 83.9513 0.351162L81.1047 7.01101L73.5433 7.58816C73.4261 7.59786 73.3145 7.64048 73.2224 7.71068C73.1304 7.78088 73.062 7.87554 73.0259 7.98278C72.9569 8.20356 73.0277 8.44346 73.2129 8.59123L79.0042 13.1963L77.1833 20.2977C77.1252 20.5219 77.216 20.7584 77.4121 20.8922C77.5155 20.9652 77.6354 21 77.757 21C77.8677 21 77.9785 20.9704 78.0747 20.9131L84.4996 17.019L90.9245 20.9113C91.1296 21.0365 91.3911 21.0278 91.5871 20.8922C91.683 20.8264 91.7561 20.7346 91.7969 20.6286C91.8377 20.5226 91.8443 20.4073 91.8159 20.2977L89.995 13.1963L95.7863 8.58949C95.8772 8.51783 95.9434 8.42165 95.9764 8.31345C96.0095 8.20524 96.0077 8.09003 95.9715 7.98278ZM87.6748 12.4644L88.9311 17.358L84.4996 14.6722L80.0699 17.3563L81.3262 12.4627L77.3322 9.28833L82.5371 8.89023L84.4996 4.30431L86.4621 8.89023L91.6652 9.28833L87.6748 12.4644Z" fill="url(#paint8_linear_1_610)" fill-opacity="0.8" style="mix-blend-mode:multiply"/>
<path d="M119.973 7.98278C119.939 7.87551 119.874 7.78073 119.786 7.71048C119.698 7.64022 119.592 7.59765 119.48 7.58816L112.249 7.01101L109.526 0.351162C109.483 0.246959 109.41 0.157921 109.316 0.0953852C109.222 0.0328494 109.112 -0.000354112 109 2.84819e-06C108.77 2.84819e-06 108.564 0.137337 108.475 0.351162L105.752 7.01101L98.5197 7.58816C98.4076 7.59786 98.3008 7.64048 98.2127 7.71068C98.1247 7.78088 98.0593 7.87554 98.0248 7.98278C97.9588 8.20356 98.0265 8.44346 98.2037 8.59123L103.743 13.1963L102.001 20.2977C101.946 20.5219 102.033 20.7584 102.22 20.8922C102.319 20.9652 102.434 21 102.55 21C102.656 21 102.762 20.9704 102.854 20.9131L109 17.019L115.145 20.9113C115.341 21.0365 115.591 21.0278 115.779 20.8922C115.871 20.8264 115.941 20.7346 115.98 20.6286C116.019 20.5226 116.025 20.4073 115.998 20.2977L114.256 13.1963L119.796 8.58949C119.882 8.51783 119.946 8.42165 119.977 8.31345C120.009 8.20524 120.007 8.09003 119.973 7.98278ZM112.037 12.4644L113.238 17.358L109 14.6722L104.763 17.3563L105.964 12.4627L102.144 9.28833L107.122 8.89023L109 4.30431L110.877 8.89023L115.854 9.28833L112.037 12.4644Z" fill="url(#paint9_linear_1_610)" fill-opacity="0.8" style="mix-blend-mode:multiply"/>
<defs>
<linearGradient id="paint0_linear_1_610" x1="11" y1="0" x2="11" y2="21" gradientUnits="userSpaceOnUse">
<stop offset="0.057764" stop-color="#E3F918"/>
<stop offset="0.879897" stop-color="#F6990E" stop-opacity="0.61"/>
</linearGradient>
<linearGradient id="paint1_linear_1_610" x1="35.5" y1="0" x2="35.5" y2="21" gradientUnits="userSpaceOnUse">
<stop offset="0.057764" stop-color="#E3F918"/>
<stop offset="0.879897" stop-color="#F6990E" stop-opacity="0.61"/>
</linearGradient>
<linearGradient id="paint2_linear_1_610" x1="59" y1="0" x2="59" y2="21" gradientUnits="userSpaceOnUse">
<stop offset="0.057764" stop-color="#E3F918"/>
<stop offset="0.879897" stop-color="#F6990E" stop-opacity="0.61"/>
</linearGradient>
<linearGradient id="paint3_linear_1_610" x1="84.5" y1="0" x2="84.5" y2="21" gradientUnits="userSpaceOnUse">
<stop offset="0.057764" stop-color="#E3F918"/>
<stop offset="0.879897" stop-color="#F6990E" stop-opacity="0.61"/>
</linearGradient>
<linearGradient id="paint4_linear_1_610" x1="109" y1="0" x2="109" y2="21" gradientUnits="userSpaceOnUse">
<stop offset="0.057764" stop-color="#E3F918"/>
<stop offset="0.879897" stop-color="#F6990E" stop-opacity="0.61"/>
</linearGradient>
<linearGradient id="paint5_linear_1_610" x1="11" y1="0" x2="11" y2="21" gradientUnits="userSpaceOnUse">
<stop offset="0.057764" stop-color="#E3F918"/>
<stop offset="0.879897" stop-color="#F6990E" stop-opacity="0.61"/>
</linearGradient>
<linearGradient id="paint6_linear_1_610" x1="35.5" y1="0" x2="35.5" y2="21" gradientUnits="userSpaceOnUse">
<stop offset="0.057764" stop-color="#E3F918"/>
<stop offset="0.879897" stop-color="#F6990E" stop-opacity="0.61"/>
</linearGradient>
<linearGradient id="paint7_linear_1_610" x1="59" y1="0" x2="59" y2="21" gradientUnits="userSpaceOnUse">
<stop offset="0.057764" stop-color="#E3F918"/>
<stop offset="0.879897" stop-color="#F6990E" stop-opacity="0.61"/>
</linearGradient>
<linearGradient id="paint8_linear_1_610" x1="84.5" y1="0" x2="84.5" y2="21" gradientUnits="userSpaceOnUse">
<stop offset="0.057764" stop-color="#E3F918"/>
<stop offset="0.879897" stop-color="#F6990E" stop-opacity="0.61"/>
</linearGradient>
<linearGradient id="paint9_linear_1_610" x1="109" y1="0" x2="109" y2="21" gradientUnits="userSpaceOnUse">
<stop offset="0.057764" stop-color="#E3F918"/>
<stop offset="0.879897" stop-color="#F6990E" stop-opacity="0.61"/>
</linearGradient>
</defs>
</svg>
